<svg xmlns="http://www.w3.org/2000/svg" viewBox="0 0 640 460" role="img" aria-labelledby="title">
  <title id="title">Apples</title>
  <rect width="640" height="460" fill="#fff7f4"/>
  <path d="M317 143c58-53 145-31 182 41 42 82 13 198-58 244-45 29-79 5-121 5-43 0-76 24-121-5-71-46-100-162-58-244 37-72 124-94 176-41z" fill="#df2f36"/>
  <path d="M323 141c-12-44 0-79 37-105 12 39 0 76-37 105z" fill="#75522f"/>
  <path d="M343 92c45-28 89-30 132-8-33 37-77 48-132 34z" fill="#35a864"/>
  <path d="M215 180c36-32 79-42 128-30" fill="none" stroke="#ff8a8f" stroke-width="19" stroke-linecap="round" opacity=".55"/>
</svg>
