<svg xmlns="http://www.w3.org/2000/svg" viewBox="0 0 640 460" role="img" aria-labelledby="title">
  <title id="title">Bell pepper</title>
  <rect width="640" height="460" fill="#f7fbf3"/>
  <path d="M323 120c64-50 150-22 177 62 26 80-2 189-65 228-46 29-73 5-112 5-40 0-67 24-113-5-63-39-91-148-65-228 27-84 113-112 178-62z" fill="#28a35a"/>
  <path d="M322 125c-9 89-12 183 0 284M236 156c-46 87-42 179 12 244M408 156c47 87 43 179-11 244" fill="none" stroke="#157c43" stroke-width="18" stroke-linecap="round" opacity=".42"/>
  <path d="M310 114c-2-41 15-67 50-78 12 34 1 63-33 87z" fill="#356a2f"/>
  <path d="M230 174c24-29 56-42 95-40" fill="none" stroke="#78d18d" stroke-width="18" stroke-linecap="round" opacity=".65"/>
</svg>
