<svg xmlns="http://www.w3.org/2000/svg" viewBox="0 0 640 460" role="img" aria-labelledby="title">
  <title id="title">Grapes</title>
  <rect width="640" height="460" fill="#f8f5fb"/>
  <path d="M321 95c15-30 40-47 76-51 2 45-22 72-72 82z" fill="#2f9b5a"/>
  <path d="M320 103c-12 37-5 72 22 106" fill="none" stroke="#64412c" stroke-width="13" stroke-linecap="round"/>
  <g fill="#7b4ab0">
    <circle cx="265" cy="164" r="45"/>
    <circle cx="335" cy="164" r="45"/>
    <circle cx="405" cy="172" r="45"/>
    <circle cx="230" cy="238" r="45"/>
    <circle cx="302" cy="239" r="45"/>
    <circle cx="374" cy="247" r="45"/>
    <circle cx="267" cy="316" r="45"/>
    <circle cx="339" cy="318" r="45"/>
    <circle cx="306" cy="389" r="45"/>
  </g>
  <g fill="#a47ad0" opacity=".45">
    <circle cx="250" cy="148" r="13"/>
    <circle cx="320" cy="148" r="13"/>
    <circle cx="390" cy="156" r="13"/>
    <circle cx="287" cy="300" r="13"/>
  </g>
</svg>
