<svg xmlns="http://www.w3.org/2000/svg" viewBox="0 0 640 460" role="img" aria-labelledby="title">
  <title id="title">Spinach</title>
  <rect width="640" height="460" fill="#f1faf4"/>
  <path d="M320 386C210 321 169 220 202 109c101 23 162 88 183 195 43-93 118-147 224-160 12 116-39 203-153 263-50-39-91-46-136-21z" fill="#1f8d4f"/>
  <path d="M108 339c25-109 92-176 201-201 26 101-10 185-109 252-37-24-67-41-92-51z" fill="#33a967"/>
  <path d="M350 382c15-118 82-194 201-228 31 111-8 204-116 280-35-28-63-45-85-52z" fill="#287c43"/>
  <path d="M180 352c67-60 126-128 176-204M338 368c48-76 94-139 138-188" stroke="#c9efd4" stroke-width="13" stroke-linecap="round" opacity=".85"/>
</svg>
